<?xml version="1.0" encoding="utf-8"?>
<!-- Generator: Adobe Illustrator 16.0.4, SVG Export Plug-In . SVG Version: 6.00 Build 0)  -->
<!DOCTYPE svg PUBLIC "-//W3C//DTD SVG 1.1//EN" "http://www.w3.org/Graphics/SVG/1.1/DTD/svg11.dtd">
<svg version="1.1" id="Layer_1" xmlns="http://www.w3.org/2000/svg" xmlns:xlink="http://www.w3.org/1999/xlink" x="0px" y="0px"
	 width="1038.316px" height="204.631px" viewBox="0 0 1038.316 204.631" enable-background="new 0 0 1038.316 204.631"
	 xml:space="preserve">
<g id="hi">
	<polygon fill="#FFFFFF" points="90,203.684 90,122.21 52.105,122.21 52.105,203.684 0,203.684 0,0.947 52.105,0.947 52.105,74.842
		90,74.842 90,0.947 142.105,0.947 142.105,203.684 	"/>
	<polyline fill="#FFFFFF" points="247.263,204.631 247.263,0.947 195.158,0.947 195.158,204.631 248.21,204.631 	"/>
</g>
<g id="dden">
	<path fill="#FFFFFF" d="M409.263,102.315c0-21.789-7.579-36.947-22.737-46.421c-7.579-4.737-15.157-6.632-23.684-6.632h-21.79
		v106.105h21.79c7.579,0,15.157-1.895,22.736-6.632C400.737,139.263,409.263,124.104,409.263,102.315 M451.894,102.315
		c0,41.685-15.157,72-46.421,90c-14.21,8.526-29.368,12.315-45.474,12.315h-62.526V0H360c16.105,0,32.211,4.736,46.422,13.263
		C435.79,32.21,451.894,61.578,451.894,102.315"/>
	<line fill="none" x1="491.684" y1="203.684" x2="491.684" y2="0"/>
	<polygon fill="#FFFFFF" points="828,203.684 685.895,204.631 685.895,0.947 828,0.947 828,45.474 738,45.474 738,75.789
		782.525,75.789 782.525,122.21 738,122.21 737.053,158.21 828,158.21 	"/>
	<polygon fill="#FFFFFF" points="1038.316,203.684 993.789,203.684 928.422,89.053 928.422,203.684 874.422,203.684 874.422,0
		928.422,0 991.895,112.736 991.895,0 1038.316,0 	"/>
	<path fill="#FFFFFF" d="M603.473,102.315c0-21.789-7.578-36.947-22.736-46.421c-7.578-4.737-15.158-6.632-23.684-6.632h-21.79
		v106.105h21.79c7.578,0,15.158-1.895,22.736-6.632C595.895,139.263,603.473,124.104,603.473,102.315 M646.105,102.315
		c0,41.685-15.158,72-46.422,90c-14.211,8.526-29.367,12.315-45.473,12.315h-62.527V0.947h62.527
		c16.105,0,32.209,4.736,46.42,13.263C630.947,32.21,646.105,61.578,646.105,102.315"/>
</g>
</svg>
